<svg width="239" height="140" viewBox="0 0 239 140" fill="none" xmlns="http://www.w3.org/2000/svg">
<path d="M119.5 11.6667L19.9167 40.8333L119.5 70L219.083 40.8333L119.5 11.6667Z" stroke="#4A4E69" stroke-opacity="0.09" stroke-width="8" stroke-linecap="round" stroke-linejoin="round"/>
<path d="M19.9167 99.1667L119.5 128.333L219.083 99.1667" stroke="#4A4E69" stroke-opacity="0.09" stroke-width="10" stroke-linecap="round" stroke-linejoin="round"/>
<path d="M19.9167 70L119.5 99.1667L219.083 70" stroke="#4A4E69" stroke-opacity="0.09" stroke-width="8" stroke-linecap="round" stroke-linejoin="round"/>
<path d="M41.9277 35.1895H36.3027V41H33.373V26.7812H42.6309V29.1543H36.3027V32.8262H41.9277V35.1895ZM47.123 41H44.291V30.4336H47.123V41ZM44.125 27.6992C44.125 27.276 44.265 26.9277 44.5449 26.6543C44.8314 26.3809 45.2188 26.2441 45.707 26.2441C46.1888 26.2441 46.5729 26.3809 46.8594 26.6543C47.1458 26.9277 47.2891 27.276 47.2891 27.6992C47.2891 28.1289 47.1426 28.4805 46.8496 28.7539C46.5632 29.0273 46.1823 29.1641 45.707 29.1641C45.2318 29.1641 44.8477 29.0273 44.5547 28.7539C44.2682 28.4805 44.125 28.1289 44.125 27.6992ZM55.3945 33.0801C55.0104 33.028 54.6719 33.002 54.3789 33.002C53.3112 33.002 52.6113 33.3633 52.2793 34.0859V41H49.457V30.4336H52.123L52.2012 31.6934C52.7676 30.7233 53.5521 30.2383 54.5547 30.2383C54.8672 30.2383 55.1602 30.2806 55.4336 30.3652L55.3945 33.0801ZM62.4844 38.0801C62.4844 37.735 62.3118 37.4648 61.9668 37.2695C61.6283 37.0677 61.0814 36.8887 60.3262 36.7324C57.8132 36.2051 56.5566 35.1374 56.5566 33.5293C56.5566 32.5918 56.944 31.8105 57.7188 31.1855C58.5 30.554 59.5189 30.2383 60.7754 30.2383C62.1165 30.2383 63.1875 30.554 63.9883 31.1855C64.7956 31.8171 65.1992 32.6374 65.1992 33.6465H62.377C62.377 33.2428 62.2467 32.9108 61.9863 32.6504C61.7259 32.3835 61.319 32.25 60.7656 32.25C60.2904 32.25 59.9225 32.3574 59.6621 32.5723C59.4017 32.7871 59.2715 33.0605 59.2715 33.3926C59.2715 33.7051 59.418 33.959 59.7109 34.1543C60.0104 34.3431 60.5117 34.5091 61.2148 34.6523C61.918 34.7891 62.5104 34.9453 62.9922 35.1211C64.4831 35.668 65.2285 36.6152 65.2285 37.9629C65.2285 38.9264 64.8151 39.7077 63.9883 40.3066C63.1615 40.8991 62.0938 41.1953 60.7852 41.1953C59.8997 41.1953 59.112 41.0391 58.4219 40.7266C57.7383 40.4076 57.2012 39.9746 56.8105 39.4277C56.4199 38.8743 56.2246 38.2786 56.2246 37.6406H58.9004C58.9264 38.1419 59.112 38.526 59.457 38.793C59.8021 39.0599 60.2643 39.1934 60.8438 39.1934C61.3841 39.1934 61.791 39.0924 62.0645 38.8906C62.3444 38.6823 62.4844 38.4121 62.4844 38.0801ZM70.4336 27.8359V30.4336H72.2402V32.5039H70.4336V37.7773C70.4336 38.168 70.5085 38.4479 70.6582 38.6172C70.8079 38.7865 71.0944 38.8711 71.5176 38.8711C71.8301 38.8711 72.1068 38.8483 72.3477 38.8027V40.9414C71.7943 41.1107 71.2246 41.1953 70.6387 41.1953C68.6595 41.1953 67.6504 40.196 67.6113 38.1973V32.5039H66.0684V30.4336H67.6113V27.8359H70.4336ZM90.1406 36.2637C90.0299 37.7936 89.4635 38.998 88.4414 39.877C87.4258 40.7559 86.0846 41.1953 84.418 41.1953C82.5951 41.1953 81.1595 40.5833 80.1113 39.3594C79.0697 38.1289 78.5488 36.4427 78.5488 34.3008V33.4316C78.5488 32.0645 78.7897 30.86 79.2715 29.8184C79.7533 28.7767 80.4401 27.9792 81.332 27.4258C82.2305 26.8659 83.2721 26.5859 84.457 26.5859C86.0977 26.5859 87.4193 27.0254 88.4219 27.9043C89.4245 28.7832 90.0039 30.0169 90.1602 31.6055H87.2305C87.1589 30.6875 86.9017 30.0234 86.459 29.6133C86.0228 29.1966 85.3555 28.9883 84.457 28.9883C83.4805 28.9883 82.748 29.3398 82.2598 30.043C81.778 30.7396 81.5306 31.8236 81.5176 33.2949V34.3691C81.5176 35.9056 81.7487 37.0286 82.2109 37.7383C82.6797 38.4479 83.4154 38.8027 84.418 38.8027C85.3229 38.8027 85.9967 38.5977 86.4395 38.1875C86.8887 37.7708 87.1458 37.1296 87.2109 36.2637H90.1406ZM98.002 41C97.8717 40.7461 97.7773 40.4303 97.7188 40.0527C97.0352 40.8145 96.1465 41.1953 95.0527 41.1953C94.0176 41.1953 93.1582 40.8958 92.4746 40.2969C91.7975 39.6979 91.459 38.9427 91.459 38.0312C91.459 36.9115 91.8724 36.0521 92.6992 35.4531C93.5326 34.8542 94.7337 34.5514 96.3027 34.5449H97.6016V33.9395C97.6016 33.4512 97.4746 33.0605 97.2207 32.7676C96.9733 32.4746 96.5794 32.3281 96.0391 32.3281C95.5638 32.3281 95.1895 32.4421 94.916 32.6699C94.6491 32.8978 94.5156 33.2103 94.5156 33.6074H91.6934C91.6934 32.9954 91.8822 32.429 92.2598 31.9082C92.6374 31.3874 93.1712 30.9805 93.8613 30.6875C94.5514 30.388 95.3262 30.2383 96.1855 30.2383C97.4876 30.2383 98.5195 30.5671 99.2812 31.2246C100.049 31.8757 100.434 32.7936 100.434 33.9785V38.5586C100.44 39.5612 100.58 40.3197 100.854 40.834V41H98.002ZM95.668 39.0371C96.0846 39.0371 96.4688 38.946 96.8203 38.7637C97.1719 38.5749 97.4323 38.3242 97.6016 38.0117V36.1953H96.5469C95.1341 36.1953 94.3822 36.6836 94.291 37.6602L94.2812 37.8262C94.2812 38.1777 94.4049 38.4674 94.6523 38.6953C94.8997 38.9232 95.2383 39.0371 95.668 39.0371ZM108.539 33.0801C108.155 33.028 107.816 33.002 107.523 33.002C106.456 33.002 105.756 33.3633 105.424 34.0859V41H102.602V30.4336H105.268L105.346 31.6934C105.912 30.7233 106.697 30.2383 107.699 30.2383C108.012 30.2383 108.305 30.2806 108.578 30.3652L108.539 33.0801ZM109.271 35.6387C109.271 33.9915 109.639 32.6797 110.375 31.7031C111.117 30.7266 112.13 30.2383 113.412 30.2383C114.441 30.2383 115.29 30.6224 115.961 31.3906V26H118.793V41H116.244L116.107 39.877C115.404 40.7559 114.499 41.1953 113.393 41.1953C112.149 41.1953 111.15 40.707 110.395 39.7305C109.646 38.7474 109.271 37.3835 109.271 35.6387ZM112.094 35.8438C112.094 36.8333 112.266 37.5918 112.611 38.1191C112.956 38.6465 113.458 38.9102 114.115 38.9102C114.988 38.9102 115.603 38.5423 115.961 37.8066V33.6367C115.609 32.901 115.001 32.5332 114.135 32.5332C112.774 32.5332 112.094 33.6367 112.094 35.8438Z" fill="black"/>
<path d="M34.5293 63.2539H35.6572V64.8467H34.5293V67H32.5537V64.8467H28.4727L28.3838 63.6025L32.5332 57.0469H34.5293V63.2539ZM30.3525 63.2539H32.5537V59.7402L32.4238 59.9658L30.3525 63.2539ZM38.7334 61.1484H39.7861C40.2874 61.1484 40.6589 61.0231 40.9004 60.7725C41.1419 60.5218 41.2627 60.1891 41.2627 59.7744C41.2627 59.3734 41.1419 59.0612 40.9004 58.8379C40.6634 58.6146 40.3353 58.5029 39.916 58.5029C39.5378 58.5029 39.221 58.6077 38.9658 58.8174C38.7106 59.0225 38.583 59.2913 38.583 59.624H36.6074C36.6074 59.1045 36.7464 58.6396 37.0244 58.2295C37.307 57.8148 37.6989 57.4912 38.2002 57.2588C38.7061 57.0264 39.262 56.9102 39.8682 56.9102C40.9209 56.9102 41.7458 57.1631 42.3428 57.6689C42.9398 58.1702 43.2383 58.863 43.2383 59.7471C43.2383 60.2028 43.0993 60.6221 42.8213 61.0049C42.5433 61.3877 42.1787 61.6816 41.7275 61.8867C42.2881 62.0872 42.7051 62.388 42.9785 62.7891C43.2565 63.1901 43.3955 63.6641 43.3955 64.2109C43.3955 65.0951 43.0719 65.8037 42.4248 66.3369C41.7822 66.8701 40.93 67.1367 39.8682 67.1367C38.8747 67.1367 38.0612 66.8747 37.4277 66.3506C36.7988 65.8265 36.4844 65.1338 36.4844 64.2725H38.46C38.46 64.6462 38.599 64.9515 38.877 65.1885C39.1595 65.4255 39.5059 65.5439 39.916 65.5439C40.3854 65.5439 40.7523 65.4209 41.0166 65.1748C41.2855 64.9242 41.4199 64.5938 41.4199 64.1836C41.4199 63.1901 40.873 62.6934 39.7793 62.6934H38.7334V61.1484ZM52.4736 57.0469H54.5244V63.9375C54.5244 64.571 54.3831 65.1315 54.1006 65.6191C53.8226 66.1022 53.4284 66.4759 52.918 66.7402C52.4076 67.0046 51.8311 67.1367 51.1885 67.1367C50.1357 67.1367 49.3154 66.8701 48.7275 66.3369C48.1396 65.7992 47.8457 65.0404 47.8457 64.0605H49.9102C49.9102 64.5482 50.0127 64.9082 50.2178 65.1406C50.4229 65.373 50.7464 65.4893 51.1885 65.4893C51.5804 65.4893 51.8926 65.3548 52.125 65.0859C52.3574 64.8171 52.4736 64.4342 52.4736 63.9375V57.0469ZM60.5811 66.248C60.0934 66.8405 59.4189 67.1367 58.5576 67.1367C57.7646 67.1367 57.1585 66.9089 56.7393 66.4531C56.3245 65.9974 56.1126 65.3298 56.1035 64.4502V59.6035H58.0791V64.3818C58.0791 65.152 58.43 65.5371 59.1318 65.5371C59.8018 65.5371 60.262 65.3047 60.5127 64.8398V59.6035H62.4951V67H60.6357L60.5811 66.248ZM68.2715 67C68.1803 66.8223 68.1143 66.6012 68.0732 66.3369C67.5947 66.8701 66.9727 67.1367 66.207 67.1367C65.4824 67.1367 64.8809 66.9271 64.4023 66.5078C63.9284 66.0885 63.6914 65.5599 63.6914 64.9219C63.6914 64.138 63.9808 63.5365 64.5596 63.1172C65.1429 62.6979 65.9837 62.486 67.082 62.4814H67.9912V62.0576C67.9912 61.7158 67.9023 61.4424 67.7246 61.2373C67.5514 61.0322 67.2757 60.9297 66.8975 60.9297C66.5648 60.9297 66.3027 61.0094 66.1113 61.1689C65.9245 61.3285 65.8311 61.5472 65.8311 61.8252H63.8555C63.8555 61.3968 63.9876 61.0003 64.252 60.6357C64.5163 60.2712 64.89 59.9863 65.373 59.7812C65.8561 59.5716 66.3984 59.4668 67 59.4668C67.9115 59.4668 68.6338 59.6969 69.167 60.1572C69.7048 60.613 69.9736 61.2555 69.9736 62.085V65.291C69.9782 65.9928 70.0762 66.5238 70.2676 66.8838V67H68.2715ZM66.6377 65.626C66.9294 65.626 67.1982 65.5622 67.4443 65.4346C67.6904 65.3024 67.8727 65.127 67.9912 64.9082V63.6367H67.2529C66.264 63.6367 65.7376 63.9785 65.6738 64.6621L65.667 64.7783C65.667 65.0244 65.7536 65.2272 65.9268 65.3867C66.0999 65.5462 66.3369 65.626 66.6377 65.626ZM73.3096 59.6035L73.3711 60.458C73.8997 59.7972 74.6084 59.4668 75.4971 59.4668C76.2809 59.4668 76.8643 59.6969 77.2471 60.1572C77.6299 60.6175 77.8258 61.3057 77.835 62.2217V67H75.8594V62.2695C75.8594 61.8503 75.7682 61.5472 75.5859 61.3604C75.4036 61.1689 75.1006 61.0732 74.6768 61.0732C74.1208 61.0732 73.7038 61.3102 73.4258 61.7842V67H71.4502V59.6035H73.3096ZM83.625 67C83.5339 66.8223 83.4678 66.6012 83.4268 66.3369C82.9482 66.8701 82.3262 67.1367 81.5605 67.1367C80.8359 67.1367 80.2344 66.9271 79.7559 66.5078C79.2819 66.0885 79.0449 65.5599 79.0449 64.9219C79.0449 64.138 79.3343 63.5365 79.9131 63.1172C80.4964 62.6979 81.3372 62.486 82.4355 62.4814H83.3447V62.0576C83.3447 61.7158 83.2559 61.4424 83.0781 61.2373C82.9049 61.0322 82.6292 60.9297 82.251 60.9297C81.9183 60.9297 81.6562 61.0094 81.4648 61.1689C81.278 61.3285 81.1846 61.5472 81.1846 61.8252H79.209C79.209 61.3968 79.3411 61.0003 79.6055 60.6357C79.8698 60.2712 80.2435 59.9863 80.7266 59.7812C81.2096 59.5716 81.752 59.4668 82.3535 59.4668C83.265 59.4668 83.9873 59.6969 84.5205 60.1572C85.0583 60.613 85.3271 61.2555 85.3271 62.085V65.291C85.3317 65.9928 85.4297 66.5238 85.6211 66.8838V67H83.625ZM81.9912 65.626C82.2829 65.626 82.5518 65.5622 82.7979 65.4346C83.0439 65.3024 83.2262 65.127 83.3447 64.9082V63.6367H82.6064C81.6175 63.6367 81.0911 63.9785 81.0273 64.6621L81.0205 64.7783C81.0205 65.0244 81.1071 65.2272 81.2803 65.3867C81.4535 65.5462 81.6904 65.626 81.9912 65.626ZM91.001 61.4561C90.7321 61.4196 90.4951 61.4014 90.29 61.4014C89.5426 61.4014 89.0527 61.6543 88.8203 62.1602V67H86.8447V59.6035H88.7109L88.7656 60.4854C89.1621 59.8063 89.7113 59.4668 90.4131 59.4668C90.6318 59.4668 90.8369 59.4964 91.0283 59.5557L91.001 61.4561ZM94.8428 64.2041L96.21 59.6035H98.3291L95.3555 68.1484L95.1914 68.5381C94.7493 69.5042 94.0202 69.9873 93.0039 69.9873C92.7168 69.9873 92.4251 69.944 92.1289 69.8574V68.3604L92.4297 68.3672C92.8034 68.3672 93.0814 68.3102 93.2637 68.1963C93.4505 68.0824 93.5964 67.8932 93.7012 67.6289L93.9336 67.0205L91.3428 59.6035H93.4688L94.8428 64.2041ZM109.335 67H102.513V65.6465L105.732 62.2148C106.174 61.7318 106.5 61.3102 106.71 60.9502C106.924 60.5902 107.031 60.2484 107.031 59.9248C107.031 59.4827 106.92 59.1364 106.696 58.8857C106.473 58.6305 106.154 58.5029 105.739 58.5029C105.293 58.5029 104.939 58.6579 104.68 58.9678C104.424 59.2731 104.297 59.6764 104.297 60.1777H102.314C102.314 59.5716 102.458 59.0179 102.745 58.5166C103.037 58.0153 103.447 57.6234 103.976 57.3408C104.504 57.0537 105.104 56.9102 105.773 56.9102C106.799 56.9102 107.594 57.1562 108.159 57.6484C108.729 58.1406 109.014 58.8356 109.014 59.7334C109.014 60.2256 108.886 60.7269 108.631 61.2373C108.376 61.7477 107.938 62.3424 107.318 63.0215L105.056 65.4072H109.335V67ZM117.251 62.8848C117.251 64.2611 116.966 65.3138 116.396 66.043C115.827 66.7721 114.993 67.1367 113.895 67.1367C112.81 67.1367 111.98 66.779 111.406 66.0635C110.832 65.348 110.538 64.3226 110.524 62.9873V61.1553C110.524 59.7653 110.812 58.7103 111.386 57.9902C111.965 57.2702 112.796 56.9102 113.881 56.9102C114.965 56.9102 115.795 57.2679 116.369 57.9834C116.943 58.6943 117.237 59.7174 117.251 61.0527V62.8848ZM115.275 60.875C115.275 60.0501 115.161 59.4508 114.934 59.0771C114.71 58.6989 114.359 58.5098 113.881 58.5098C113.416 58.5098 113.072 58.6898 112.849 59.0498C112.63 59.4053 112.514 59.9635 112.5 60.7246V63.1445C112.5 63.9557 112.609 64.5596 112.828 64.9561C113.051 65.348 113.407 65.5439 113.895 65.5439C114.378 65.5439 114.726 65.3548 114.94 64.9766C115.155 64.5983 115.266 64.0195 115.275 63.2402V60.875ZM125.413 67H118.591V65.6465L121.811 62.2148C122.253 61.7318 122.578 61.3102 122.788 60.9502C123.002 60.5902 123.109 60.2484 123.109 59.9248C123.109 59.4827 122.998 59.1364 122.774 58.8857C122.551 58.6305 122.232 58.5029 121.817 58.5029C121.371 58.5029 121.018 58.6579 120.758 58.9678C120.503 59.2731 120.375 59.6764 120.375 60.1777H118.393C118.393 59.5716 118.536 59.0179 118.823 58.5166C119.115 58.0153 119.525 57.6234 120.054 57.3408C120.582 57.0537 121.182 56.9102 121.852 56.9102C122.877 56.9102 123.672 57.1562 124.237 57.6484C124.807 58.1406 125.092 58.8356 125.092 59.7334C125.092 60.2256 124.964 60.7269 124.709 61.2373C124.454 61.7477 124.016 62.3424 123.396 63.0215L121.134 65.4072H125.413V67ZM131.429 67H129.453V59.3848L127.095 60.1162V58.5098L131.217 57.0332H131.429V67Z" fill="#595959"/>
<rect x="164" y="114" width="48" height="20" rx="10" fill="#4A4E69"/>
<path d="M180.336 120.364V121.717H181.43V122.195H180.336V125.716C180.336 126.009 180.388 126.227 180.492 126.37C180.6 126.513 180.777 126.585 181.024 126.585C181.122 126.585 181.28 126.569 181.498 126.536L181.522 127.015C181.369 127.07 181.161 127.098 180.897 127.098C180.497 127.098 180.206 126.982 180.023 126.751C179.841 126.517 179.75 126.173 179.75 125.721V122.195H178.778V121.717H179.75V120.364H180.336ZM185.976 127C185.917 126.834 185.88 126.588 185.863 126.263C185.658 126.53 185.396 126.736 185.077 126.883C184.761 127.026 184.426 127.098 184.071 127.098C183.563 127.098 183.152 126.956 182.836 126.673C182.523 126.39 182.367 126.032 182.367 125.599C182.367 125.084 182.58 124.677 183.007 124.378C183.437 124.078 184.034 123.929 184.799 123.929H185.858V123.328C185.858 122.951 185.741 122.654 185.507 122.439C185.276 122.221 184.937 122.112 184.491 122.112C184.084 122.112 183.747 122.216 183.48 122.425C183.214 122.633 183.08 122.884 183.08 123.177L182.494 123.172C182.494 122.752 182.689 122.389 183.08 122.083C183.471 121.774 183.951 121.619 184.521 121.619C185.11 121.619 185.574 121.767 185.912 122.063C186.254 122.356 186.43 122.767 186.439 123.294V125.794C186.439 126.305 186.493 126.688 186.601 126.941V127H185.976ZM184.14 126.58C184.53 126.58 184.879 126.486 185.185 126.297C185.494 126.108 185.718 125.856 185.858 125.54V124.378H184.813C184.231 124.384 183.775 124.492 183.446 124.7C183.118 124.905 182.953 125.188 182.953 125.55C182.953 125.846 183.062 126.092 183.28 126.287C183.502 126.482 183.788 126.58 184.14 126.58ZM187.768 124.31C187.768 123.483 187.95 122.828 188.314 122.347C188.682 121.862 189.18 121.619 189.809 121.619C190.528 121.619 191.075 121.906 191.449 122.479L191.479 121.717H192.025V126.893C192.025 127.573 191.835 128.112 191.454 128.509C191.073 128.906 190.557 129.104 189.906 129.104C189.538 129.104 189.187 129.021 188.852 128.855C188.52 128.693 188.257 128.475 188.065 128.201L188.393 127.85C188.806 128.357 189.298 128.611 189.867 128.611C190.355 128.611 190.736 128.466 191.01 128.177C191.283 127.89 191.425 127.492 191.435 126.98V126.316C191.06 126.837 190.515 127.098 189.799 127.098C189.187 127.098 188.695 126.854 188.324 126.365C187.953 125.877 187.768 125.218 187.768 124.388V124.31ZM188.358 124.412C188.358 125.086 188.493 125.618 188.764 126.009C189.034 126.396 189.415 126.59 189.906 126.59C190.626 126.59 191.135 126.268 191.435 125.623V123.167C191.298 122.828 191.101 122.571 190.844 122.396C190.587 122.216 190.277 122.127 189.916 122.127C189.424 122.127 189.042 122.321 188.769 122.708C188.495 123.092 188.358 123.66 188.358 124.412ZM197.187 123.128H197.792C198.127 123.128 198.42 123.069 198.671 122.952C198.922 122.832 199.112 122.669 199.242 122.464C199.376 122.256 199.442 122.016 199.442 121.746C199.442 121.29 199.314 120.934 199.057 120.677C198.799 120.42 198.43 120.291 197.948 120.291C197.493 120.291 197.118 120.426 196.825 120.696C196.535 120.963 196.391 121.316 196.391 121.756H195.805C195.805 121.388 195.897 121.053 196.083 120.75C196.269 120.444 196.526 120.208 196.854 120.042C197.183 119.876 197.548 119.793 197.948 119.793C198.593 119.793 199.101 119.969 199.472 120.32C199.843 120.672 200.028 121.154 200.028 121.766C200.028 122.107 199.919 122.423 199.701 122.713C199.486 122.999 199.19 123.214 198.812 123.357C199.255 123.481 199.59 123.694 199.818 123.997C200.046 124.297 200.16 124.655 200.16 125.071C200.16 125.68 199.962 126.17 199.564 126.541C199.167 126.912 198.637 127.098 197.973 127.098C197.549 127.098 197.16 127.013 196.806 126.844C196.454 126.674 196.181 126.438 195.985 126.136C195.793 125.83 195.697 125.475 195.697 125.071H196.283C196.283 125.524 196.441 125.893 196.757 126.18C197.073 126.463 197.478 126.604 197.973 126.604C198.477 126.604 198.869 126.476 199.149 126.219C199.433 125.958 199.574 125.582 199.574 125.091C199.574 124.616 199.421 124.253 199.115 124.002C198.812 123.751 198.365 123.626 197.772 123.626H197.187V123.128Z" fill="white"/>
<rect x="86" y="114" width="48" height="20" rx="10" fill="#4A4E69"/>
<path d="M101.12 120.364V121.717H102.214V122.195H101.12V125.716C101.12 126.009 101.172 126.227 101.276 126.37C101.384 126.513 101.561 126.585 101.809 126.585C101.906 126.585 102.064 126.569 102.282 126.536L102.307 127.015C102.154 127.07 101.945 127.098 101.682 127.098C101.281 127.098 100.99 126.982 100.808 126.751C100.625 126.517 100.534 126.173 100.534 125.721V122.195H99.5625V121.717H100.534V120.364H101.12ZM106.76 127C106.701 126.834 106.664 126.588 106.647 126.263C106.442 126.53 106.18 126.736 105.861 126.883C105.546 127.026 105.21 127.098 104.855 127.098C104.348 127.098 103.936 126.956 103.62 126.673C103.308 126.39 103.151 126.032 103.151 125.599C103.151 125.084 103.365 124.677 103.791 124.378C104.221 124.078 104.818 123.929 105.583 123.929H106.643V123.328C106.643 122.951 106.525 122.654 106.291 122.439C106.06 122.221 105.721 122.112 105.275 122.112C104.868 122.112 104.532 122.216 104.265 122.425C103.998 122.633 103.864 122.884 103.864 123.177L103.278 123.172C103.278 122.752 103.474 122.389 103.864 122.083C104.255 121.774 104.735 121.619 105.305 121.619C105.894 121.619 106.358 121.767 106.696 122.063C107.038 122.356 107.214 122.767 107.224 123.294V125.794C107.224 126.305 107.277 126.688 107.385 126.941V127H106.76ZM104.924 126.58C105.314 126.58 105.663 126.486 105.969 126.297C106.278 126.108 106.503 125.856 106.643 125.54V124.378H105.598C105.015 124.384 104.559 124.492 104.23 124.7C103.902 124.905 103.737 125.188 103.737 125.55C103.737 125.846 103.846 126.092 104.064 126.287C104.286 126.482 104.572 126.58 104.924 126.58ZM108.552 124.31C108.552 123.483 108.734 122.828 109.099 122.347C109.466 121.862 109.965 121.619 110.593 121.619C111.312 121.619 111.859 121.906 112.233 122.479L112.263 121.717H112.81V126.893C112.81 127.573 112.619 128.112 112.238 128.509C111.857 128.906 111.341 129.104 110.69 129.104C110.323 129.104 109.971 129.021 109.636 128.855C109.304 128.693 109.042 128.475 108.85 128.201L109.177 127.85C109.59 128.357 110.082 128.611 110.651 128.611C111.14 128.611 111.521 128.466 111.794 128.177C112.067 127.89 112.209 127.492 112.219 126.98V126.316C111.844 126.837 111.299 127.098 110.583 127.098C109.971 127.098 109.479 126.854 109.108 126.365C108.737 125.877 108.552 125.218 108.552 124.388V124.31ZM109.143 124.412C109.143 125.086 109.278 125.618 109.548 126.009C109.818 126.396 110.199 126.59 110.69 126.59C111.41 126.59 111.919 126.268 112.219 125.623V123.167C112.082 122.828 111.885 122.571 111.628 122.396C111.371 122.216 111.062 122.127 110.7 122.127C110.209 122.127 109.826 122.321 109.553 122.708C109.279 123.092 109.143 123.66 109.143 124.412ZM121.125 127H116.672V126.551L119.108 123.787C119.512 123.322 119.792 122.938 119.948 122.635C120.104 122.332 120.183 122.037 120.183 121.751C120.183 121.302 120.051 120.947 119.787 120.687C119.523 120.423 119.16 120.291 118.698 120.291C118.22 120.291 117.832 120.444 117.536 120.75C117.243 121.056 117.097 121.453 117.097 121.941H116.516C116.516 121.541 116.605 121.176 116.784 120.848C116.966 120.519 117.224 120.262 117.556 120.076C117.891 119.887 118.272 119.793 118.698 119.793C119.349 119.793 119.857 119.964 120.222 120.306C120.59 120.647 120.773 121.113 120.773 121.702C120.773 122.034 120.669 122.397 120.461 122.791C120.256 123.185 119.893 123.676 119.372 124.266L117.39 126.507H121.125V127Z" fill="white"/>
<rect x="17" y="114" width="48" height="20" rx="10" fill="#4A4E69"/>
<path d="M33.3359 120.364V121.717H34.4297V122.195H33.3359V125.716C33.3359 126.009 33.388 126.227 33.4922 126.37C33.5996 126.513 33.777 126.585 34.0244 126.585C34.1221 126.585 34.2799 126.569 34.498 126.536L34.5225 127.015C34.3695 127.07 34.1611 127.098 33.8975 127.098C33.4971 127.098 33.2057 126.982 33.0234 126.751C32.8411 126.517 32.75 126.173 32.75 125.721V122.195H31.7783V121.717H32.75V120.364H33.3359ZM38.9756 127C38.917 126.834 38.8796 126.588 38.8633 126.263C38.6582 126.53 38.3962 126.736 38.0771 126.883C37.7614 127.026 37.4261 127.098 37.0713 127.098C36.5635 127.098 36.1517 126.956 35.8359 126.673C35.5234 126.39 35.3672 126.032 35.3672 125.599C35.3672 125.084 35.5804 124.677 36.0068 124.378C36.4365 124.078 37.0339 123.929 37.7988 123.929H38.8584V123.328C38.8584 122.951 38.7412 122.654 38.5068 122.439C38.2757 122.221 37.9372 122.112 37.4912 122.112C37.0843 122.112 36.7474 122.216 36.4805 122.425C36.2135 122.633 36.0801 122.884 36.0801 123.177L35.4941 123.172C35.4941 122.752 35.6895 122.389 36.0801 122.083C36.4707 121.774 36.9508 121.619 37.5205 121.619C38.1097 121.619 38.5736 121.767 38.9121 122.063C39.2539 122.356 39.4297 122.767 39.4395 123.294V125.794C39.4395 126.305 39.4932 126.688 39.6006 126.941V127H38.9756ZM37.1396 126.58C37.5303 126.58 37.8786 126.486 38.1846 126.297C38.4938 126.108 38.7184 125.856 38.8584 125.54V124.378H37.8135C37.2308 124.384 36.7751 124.492 36.4463 124.7C36.1175 124.905 35.9531 125.188 35.9531 125.55C35.9531 125.846 36.0622 126.092 36.2803 126.287C36.5016 126.482 36.7881 126.58 37.1396 126.58ZM40.7676 124.31C40.7676 123.483 40.9499 122.828 41.3145 122.347C41.6823 121.862 42.1803 121.619 42.8086 121.619C43.528 121.619 44.0749 121.906 44.4492 122.479L44.4785 121.717H45.0254V126.893C45.0254 127.573 44.835 128.112 44.4541 128.509C44.0732 128.906 43.5573 129.104 42.9062 129.104C42.5384 129.104 42.1868 129.021 41.8516 128.855C41.5195 128.693 41.2575 128.475 41.0654 128.201L41.3926 127.85C41.806 128.357 42.2975 128.611 42.8672 128.611C43.3555 128.611 43.7363 128.466 44.0098 128.177C44.2832 127.89 44.4248 127.492 44.4346 126.98V126.316C44.0602 126.837 43.515 127.098 42.7988 127.098C42.1868 127.098 41.6953 126.854 41.3242 126.365C40.9531 125.877 40.7676 125.218 40.7676 124.388V124.31ZM41.3584 124.412C41.3584 125.086 41.4935 125.618 41.7637 126.009C42.0339 126.396 42.4147 126.59 42.9062 126.59C43.6257 126.59 44.1351 126.268 44.4346 125.623V123.167C44.2979 122.828 44.1009 122.571 43.8438 122.396C43.5866 122.216 43.2773 122.127 42.916 122.127C42.4245 122.127 42.042 122.321 41.7686 122.708C41.4951 123.092 41.3584 123.66 41.3584 124.412ZM51.6074 127H51.0215V120.594L49.0879 121.312V120.765L51.5098 119.866H51.6074V127Z" fill="white"/>
</svg>
